<svg xmlns="http://www.w3.org/2000/svg" viewBox="0 0 24 24" width="24" height="24" fill="none" stroke="currentColor" stroke-width="2" stroke-linecap="round" stroke-linejoin="round" class="feather feather-map-pin">
  <defs>
    <linearGradient id="costa-rica-grad" x1="0%" y1="0%" x2="100%" y2="100%">
      <stop offset="0%" stop-color="#10B981" />
      <stop offset="50%" stop-color="#059669" />
      <stop offset="100%" stop-color="#1E3A8A" />
    </linearGradient>
  </defs>
  <!-- Background circle/shape -->
  <rect x="2" y="2" width="20" height="20" rx="6" fill="url(#costa-rica-grad)" stroke="none" />
  
  <!-- Stylized Bus Front -->
  <!-- Roof/Body -->
  <path d="M7 6h10a2 2 0 0 1 2 2v7a2 2 0 0 1-2 2H7a2 2 0 0 1-2-2V8a2 2 0 0 1 2-2z" fill="#FFFFFF" stroke="none" />
  <!-- Windshield -->
  <rect x="7" y="8" width="10" height="4" rx="1" fill="#0F172A" />
  <!-- Lights -->
  <circle cx="8" cy="15" r="0.75" fill="#F59E0B" />
  <circle cx="16" cy="15" r="0.75" fill="#F59E0B" />
  <!-- Grille -->
  <line x1="10" y1="15" x2="14" y2="15" stroke="#94A3B8" stroke-width="1" />
  <!-- Wheels/Bumper -->
  <rect x="6" y="17" width="2" height="1.5" rx="0.5" fill="#0F172A" />
  <rect x="16" y="17" width="2" height="1.5" rx="0.5" fill="#0F172A" />
</svg>
